<svg width="44" height="14" viewBox="0 0 44 14" fill="none" xmlns="http://www.w3.org/2000/svg">
<path d="M31.6143 3.81641C32.0295 3.81646 32.371 3.88778 32.6387 4.0293C32.9095 4.16778 33.1251 4.33527 33.2852 4.53223C33.4452 4.72611 33.5663 4.90969 33.6494 5.08203H33.7422V3.90918H35.3896V11.1152C35.3896 11.7215 35.2453 12.2231 34.9561 12.6201C34.6668 13.0171 34.2712 13.3147 33.7695 13.5117C33.2679 13.7086 32.6985 13.8066 32.0615 13.8066C31.4614 13.8066 30.9455 13.7256 30.5146 13.5625C30.084 13.4025 29.7381 13.1867 29.4766 12.916C29.215 12.6452 29.0332 12.3449 28.9316 12.0156L30.4365 11.6514C30.5042 11.7898 30.6033 11.9262 30.7324 12.0615C30.8617 12.2 31.0354 12.3141 31.2539 12.4033C31.4754 12.4956 31.7537 12.542 32.0889 12.542C32.5628 12.542 32.9558 12.4261 33.2666 12.1953C33.5773 11.9676 33.7324 11.5924 33.7324 11.0693V9.72559H33.6494C33.5633 9.89789 33.4376 10.0753 33.2715 10.2568C33.1084 10.4384 32.8909 10.5908 32.6201 10.7139C32.3524 10.8369 32.0155 10.8984 31.6094 10.8984C31.0646 10.8984 30.5701 10.7711 30.127 10.5156C29.687 10.2572 29.3368 9.87202 29.0752 9.36133C28.8167 8.8474 28.6865 8.20405 28.6865 7.43164C28.6865 6.65299 28.8167 5.99547 29.0752 5.45996C29.3367 4.92167 29.6889 4.51422 30.1318 4.2373C30.575 3.95724 31.0695 3.81641 31.6143 3.81641ZM6 0C9.31371 0 12 2.68629 12 6C12 9.31371 9.31371 12 6 12C2.68629 12 0 9.31371 0 6C0 2.68629 2.68629 0 6 0ZM24.1621 3.81641C24.8543 3.81647 25.4543 3.96893 25.9619 4.27344C26.4697 4.57812 26.8627 5.00672 27.1396 5.55762C27.4195 6.10841 27.5596 6.75016 27.5596 7.48242C27.5595 8.21464 27.4195 8.85466 27.1396 9.40234C26.8627 9.95017 26.4697 10.377 25.9619 10.6816C25.4543 10.9862 24.8543 11.1386 24.1621 11.1387C23.4697 11.1387 22.8691 10.9863 22.3613 10.6816C21.8535 10.377 21.4598 9.95017 21.1797 9.40234C20.9028 8.8546 20.7637 8.21475 20.7637 7.48242C20.7637 6.75005 20.9028 6.10846 21.1797 5.55762C21.4598 5.00672 21.8535 4.57812 22.3613 4.27344C22.8691 3.96884 23.4697 3.81641 24.1621 3.81641ZM40.1963 3.81641C40.8884 3.81647 41.4884 3.96893 41.9961 4.27344C42.5039 4.57812 42.8968 5.00672 43.1738 5.55762C43.4537 6.10841 43.5938 6.75016 43.5938 7.48242C43.5937 8.21464 43.4537 8.85466 43.1738 9.40234C42.8968 9.95017 42.5039 10.377 41.9961 10.6816C41.4884 10.9862 40.8885 11.1386 40.1963 11.1387C39.5039 11.1387 38.9033 10.9863 38.3955 10.6816C37.8877 10.377 37.4939 9.95017 37.2139 9.40234C36.937 8.8546 36.7979 8.21475 36.7979 7.48242C36.7979 6.75005 36.937 6.10846 37.2139 5.55762C37.4939 5.00672 37.8877 4.57812 38.3955 4.27344C38.9033 3.96884 39.5039 3.81641 40.1963 3.81641ZM15.4922 9.56445H19.6562V11H13.7793V1.5459H15.4922V9.56445ZM24.1709 5.1416C23.7862 5.1416 23.4664 5.24677 23.2109 5.45605C22.9586 5.66533 22.7688 5.94688 22.6426 6.30078C22.5196 6.65151 22.458 7.04379 22.458 7.47754C22.458 7.90841 22.5195 8.29954 22.6426 8.65039C22.7688 9.00121 22.9586 9.28097 23.2109 9.49023C23.4664 9.6964 23.7862 9.7998 24.1709 9.7998C24.5463 9.7998 24.86 9.69637 25.1123 9.49023C25.3646 9.28099 25.5527 9.00116 25.6758 8.65039C25.802 8.29954 25.8652 7.90841 25.8652 7.47754C25.8652 7.04374 25.8019 6.65154 25.6758 6.30078C25.5527 5.94686 25.3647 5.66533 25.1123 5.45605C24.8599 5.24677 24.5464 5.1416 24.1709 5.1416ZM40.2051 5.1416C39.8204 5.1416 39.5006 5.24677 39.2451 5.45605C38.9928 5.66533 38.8029 5.94688 38.6768 6.30078C38.5538 6.65151 38.4922 7.04379 38.4922 7.47754C38.4922 7.90841 38.5536 8.29954 38.6768 8.65039C38.8029 9.00121 38.9928 9.28097 39.2451 9.49023C39.5005 9.6964 39.8204 9.7998 40.2051 9.7998C40.5805 9.7998 40.8941 9.69637 41.1465 9.49023C41.3988 9.28099 41.5869 9.00116 41.71 8.65039C41.8361 8.29954 41.8994 7.90841 41.8994 7.47754C41.8994 7.04374 41.8361 6.65154 41.71 6.30078C41.5869 5.94686 41.3988 5.66533 41.1465 5.45605C40.8941 5.24677 40.5806 5.1416 40.2051 5.1416ZM32.0752 5.1875C31.7029 5.18755 31.3918 5.28467 31.1426 5.47852C30.8934 5.67238 30.7062 5.93892 30.5801 6.27734C30.4539 6.61271 30.3907 6.99423 30.3906 7.42188C30.3906 7.85582 30.4539 8.23627 30.5801 8.5625C30.7093 8.88552 30.8983 9.13779 31.1475 9.31934C31.3998 9.4978 31.7091 9.58687 32.0752 9.58691C32.4291 9.58691 32.7312 9.50145 32.9805 9.3291C33.2297 9.15682 33.4186 8.9089 33.5479 8.58594C33.6771 8.26278 33.7422 7.87429 33.7422 7.42188C33.7422 6.97586 33.677 6.58533 33.5479 6.25C33.4217 5.91472 33.2344 5.65437 32.9854 5.46973C32.7391 5.28199 32.4353 5.1875 32.0752 5.1875Z" fill="black"/>
</svg>
